<svg width="68" height="66" viewBox="0 0 68 66" fill="none" xmlns="http://www.w3.org/2000/svg">
<path d="M34.06 58.78C45.4315 58.78 54.65 49.5615 54.65 38.19C54.65 26.8184 45.4315 17.6 34.06 17.6C22.6884 17.6 13.47 26.8184 13.47 38.19C13.47 49.5615 22.6884 58.78 34.06 58.78Z" stroke="black" stroke-width="2.5" stroke-miterlimit="10"/>
<path d="M13.47 38.19C13.47 38.19 23.77 41.62 34.06 31.32C34.06 31.32 43.79 42.76 54.66 38.19" stroke="black" stroke-width="2.5" stroke-miterlimit="10"/>
<path d="M34 11.16V0.179993" stroke="black" stroke-width="2.5" stroke-miterlimit="10"/>
<path d="M20.49 14.78L15 5.27002" stroke="black" stroke-width="2.5" stroke-miterlimit="10"/>
<path d="M57.41 24.67L66.92 19.18" stroke="black" stroke-width="2.5" stroke-miterlimit="10"/>
<path d="M10.59 24.67L1.07999 19.18" stroke="black" stroke-width="2.5" stroke-miterlimit="10"/>
<path d="M47.51 14.78L53 5.27002" stroke="black" stroke-width="2.5" stroke-miterlimit="10"/>
<path d="M22.59 54.78C18.6 67.56 5.81998 63 5.81998 63C13.82 51.82 13.42 38.16 13.42 38.16" stroke="black" stroke-width="2.5" stroke-miterlimit="10"/>
<path d="M45.41 55C49.41 67.78 62.18 63.25 62.18 63.25C54.18 52.07 54.58 38.41 54.58 38.41" stroke="black" stroke-width="2.5" stroke-miterlimit="10"/>
</svg>
