<svg width="35" height="36" viewBox="0 0 35 36" fill="none" xmlns="http://www.w3.org/2000/svg">
<path d="M21.3187 35.6476H13.7962V27.3303L8.08754 33.24L2.75238 27.768L8.461 21.913H0.351562V14.1428H8.461L2.75238 8.28785L8.08754 2.8159L13.7962 8.67089V0.353516H21.3187V8.67089L27.0807 2.8159L32.4159 8.28785L26.6539 14.1428H34.7633V21.8583H26.6539L32.3625 27.7133L27.0273 33.1853L21.3187 27.3303V35.6476ZM15.1299 34.2796H19.9849V24.0471L27.0273 31.3248L30.4952 27.768L23.4528 20.4903H33.4295V15.5108H23.4528L30.5486 8.28785L27.0807 4.73108L19.9849 11.9541V1.7215H15.1299V11.9541L8.03419 4.73108L4.61969 8.23313L11.7154 15.4561H1.68535V20.4356H11.6621L4.61969 27.768L8.08754 31.3248L15.1299 24.0471V34.2796Z" fill="#1C1D30"/>
</svg>
