<svg width="27" height="42" viewBox="0 0 27 42" fill="none" xmlns="http://www.w3.org/2000/svg">
<path d="M5.03595 42H3.5191V28.0974C2.66966 25.5271 2.24494 23.1321 2.24494 23.0153V22.9569C2.18427 21.9054 2.36629 20.854 2.73034 19.9193C2.24494 20.0362 1.69888 20.0362 1.09213 20.0362H0L0.364045 19.0431C0.72809 18.1085 0.970786 17.1739 1.15281 16.1808C1.51685 13.9611 1.51685 12.0334 1.51685 8.879V8.0612C1.51685 3.6217 5.27865 0 9.88989 0C14.5011 0 18.2629 3.6217 18.2629 8.0612C18.2629 11.2156 16.382 13.9026 13.7124 15.2462C15.836 16.2392 17.3528 18.2837 17.5955 20.7955C22.8135 21.146 27 25.7608 27 31.3686C27 37.21 22.5101 41.9416 16.9281 41.9416H16.8674V40.4812H16.9281C21.6607 40.4812 25.4831 36.3922 25.4831 31.3686C25.4831 26.3449 21.6607 22.2559 16.9281 22.2559H16.0787V21.5549C16.0787 18.5758 13.8337 16.1808 11.0427 16.1808H10.1933C10.0719 16.1808 9.95056 16.1808 9.88989 16.1808H7.40225C7.09888 16.765 6.79551 17.3491 6.37079 17.8164C6.06742 18.2253 5.70337 18.5174 5.27865 18.8095C4.12584 19.8609 3.57978 21.2629 3.70112 22.7816C3.7618 23.1905 4.73258 28.0389 6.31011 30.9597C7.34157 32.8873 12.9236 32.9458 16.2607 33.0042H16.8067C17.5348 33.0042 18.2022 32.4784 18.2629 31.7191C18.2629 31.6606 18.2629 31.6022 18.2629 31.6022C18.2629 30.8428 17.5955 30.2003 16.8067 30.2587C12.3169 30.2587 9.10112 30.1419 8.55506 28.2726C8.06966 26.2865 7.70562 24.242 7.46292 22.2559L8.97978 22.0807C9.22247 24.0083 9.58652 25.9944 10.0719 27.9221C10.3146 28.7983 14.8652 28.7983 16.8067 28.7983C18.3843 28.7983 19.7191 30.0834 19.7191 31.6022C19.7191 31.6606 19.7191 31.7775 19.7191 31.8943C19.5978 33.3547 18.3236 34.4645 16.7461 34.4645H16.2C12.0742 34.4061 6.43146 34.3477 4.91461 31.7191V42H5.03595ZM3.03371 8.0612V8.879C3.03371 11.975 3.03371 14.0195 2.66966 16.4145C2.54831 17.1154 2.36629 17.8164 2.1236 18.459C3.39775 18.2837 4.42921 17.758 5.1573 16.8234C7.82697 13.7274 6.55281 7.36022 6.55281 7.30181L6.31011 6.19193L7.46292 6.48401C7.70562 6.54242 12.4989 7.59388 15.2292 3.97218C13.9551 2.45341 12.0135 1.46036 9.82921 1.46036C6.12809 1.46036 3.03371 4.4395 3.03371 8.0612ZM7.94831 14.662H10.1933C13.8337 14.4868 16.7461 11.6245 16.7461 8.0612C16.7461 7.06815 16.5034 6.13352 16.1393 5.31572C13.6517 8.11961 10.0719 8.23644 8.25169 8.0612C8.43371 9.46314 8.61573 12.2086 7.94831 14.662Z" fill="#1C1D30"/>
</svg>
