<svg width="19" height="42" viewBox="0 0 19 42" fill="none" xmlns="http://www.w3.org/2000/svg">
<path d="M9.90875 42H8.63239V39.9134C7.66235 39.8064 4.39486 39.2178 2.30162 37.0242C-0.148995 34.4561 0.0552225 30.7643 0.0552225 30.6038V30.5503V28.1962H1.33159V30.0688C2.5569 30.2828 5.41595 30.9248 7.30497 32.9045C7.86657 33.493 8.275 34.0815 8.58133 34.7236V30.5503C7.6113 30.4433 4.3438 29.8548 2.25057 27.6611C-0.200051 25.1465 0.00416773 21.4013 0.00416773 21.2408V21.1873V18.8331H1.28053V20.6522C2.50584 20.8662 5.36489 21.5083 7.25391 23.4879C7.81551 24.0764 8.22395 24.665 8.53028 25.307V21.1338C7.56024 21.0268 4.29275 20.4382 2.19951 18.2446C-0.148995 15.7299 0.0552225 12.0382 0.0552225 11.8777V11.8242V9.47006H1.33159V11.3427C2.5569 11.5567 5.41595 12.1987 7.30497 14.1783C7.86657 14.7669 8.275 15.3554 8.58133 15.9975V14.3389C7.96868 13.6433 6.07966 11.2892 6.07966 8.4535C6.07966 5.61783 7.96868 3.26369 8.58133 2.56815V0H9.8577V2.56815C10.4704 3.26369 12.3594 5.61783 12.3594 8.4535C12.3594 11.2892 10.4704 13.6433 9.8577 14.3389V15.9975C10.164 15.3554 10.5725 14.7669 11.1341 14.1783C13.0231 12.1987 15.8821 11.5567 17.1074 11.3427V9.52357H18.4349V11.9312C18.4349 12.0917 18.6391 15.7834 16.1885 18.3516C14.0952 20.5452 10.8277 21.0803 9.8577 21.2408V25.414C10.164 24.772 10.5725 24.1834 11.1341 23.5949C13.0231 21.6153 15.8821 20.9732 17.1074 20.7592V18.8331H18.4349V21.2408C18.4349 21.4013 18.6391 25.093 16.1885 27.6611C14.0952 29.8013 10.8277 30.3898 9.8577 30.5503V34.7236C10.164 34.135 10.5725 33.493 11.083 32.958C12.972 30.9783 15.8821 30.3363 17.1074 30.1223V28.3032H18.4349V30.7108C18.4349 30.8713 18.6391 34.5631 16.1885 37.1312C14.0952 39.3248 10.8277 39.8599 9.8577 40.0204V42H9.90875ZM17.1585 31.4599C15.9842 31.6739 13.5847 32.2624 12.053 33.8675C10.6235 35.3656 10.2661 37.4522 10.2151 38.5223C11.3893 38.3083 13.7889 37.7197 15.3205 36.1147C16.7501 34.5631 17.0564 32.5299 17.1585 31.4599ZM1.33159 31.4599C1.38264 32.5299 1.74002 34.6166 3.16955 36.1147C4.70119 37.7197 7.10075 38.3083 8.275 38.5223C8.22395 37.4522 7.86657 35.3656 6.43704 33.8675C4.9054 32.2624 2.5569 31.6739 1.33159 31.4599ZM17.1585 22.0433C15.9842 22.2573 13.5847 22.8459 12.053 24.451C10.6235 25.949 10.2661 28.0357 10.2151 29.1057C11.3893 28.8917 13.7889 28.2497 15.3205 26.6981C16.7501 25.2 17.0564 23.1669 17.1585 22.0433ZM1.33159 22.0433C1.38264 23.1134 1.74002 25.2 3.16955 26.6981C4.70119 28.2497 7.10075 28.8917 8.275 29.1057C8.22395 28.0357 7.86657 25.949 6.43704 24.451C4.9054 22.8994 2.50584 22.2573 1.33159 22.0433ZM17.1585 12.6803C15.9842 12.8943 13.5847 13.4828 12.053 15.0879C10.6235 16.586 10.2661 18.6726 10.2151 19.7427C11.3893 19.5287 13.7889 18.9401 15.3205 17.335C16.7501 15.8369 17.0564 13.7503 17.1585 12.6803ZM1.33159 12.6803C1.38264 13.7503 1.74002 15.8369 3.16955 17.335C4.70119 18.9401 7.10075 19.5287 8.275 19.7427C8.22395 18.6726 7.86657 16.586 6.43704 15.0879C4.9054 13.4828 2.50584 12.8943 1.33159 12.6803ZM9.14293 12.8943H9.29609C9.9598 11.9847 11.0319 10.2726 11.0319 8.4C11.0319 6.42038 9.8577 4.65478 9.19399 3.79873C8.53028 4.65478 7.35602 6.42038 7.35602 8.4C7.40708 10.3261 8.47922 12.0382 9.14293 12.8943Z" fill="#1C1D30"/>
</svg>
