<svg width="27" height="38" viewBox="0 0 27 38" fill="none" xmlns="http://www.w3.org/2000/svg">
<path d="M11.0895 27.3249C5.39232 27.3249 0.753906 22.7369 0.753906 17.0397C0.753906 11.3425 5.39232 6.7041 11.0895 6.7041C16.7867 6.7041 21.3747 11.3425 21.3747 17.0397C21.3747 22.7369 16.7363 27.3249 11.0895 27.3249ZM11.0895 7.96454C6.09816 7.96454 2.01434 12.0484 2.01434 17.0397C2.01434 22.031 6.09816 26.1148 11.0895 26.1148C16.0808 26.1148 20.1646 22.031 20.1646 17.0397C20.1646 12.0484 16.0808 7.96454 11.0895 7.96454Z" fill="#1C1D30"/>
<path d="M11.694 27.2236H10.4336V37.9121H11.694V27.2236Z" fill="#1C1D30"/>
<path d="M16.2837 32.3662H5.79688V33.6266H16.2837V32.3662Z" fill="#1C1D30"/>
<path d="M16.3853 14.8721H5.89844V16.1325H16.3853V14.8721Z" fill="#1C1D30"/>
<path d="M16.3853 19.1074H5.89844V20.3679H16.3853V19.1074Z" fill="#1C1D30"/>
<path d="M25.6903 1.23548L17.3125 9.61328L18.2038 10.5045L26.5816 2.12673L25.6903 1.23548Z" fill="#1C1D30"/>
<path d="M26.9728 10.4855H25.7123V2.01532H17.2422V0.754883H26.9728V10.4855Z" fill="#1C1D30"/>
</svg>
