<svg width="44" height="39" viewBox="0 0 44 39" fill="none" xmlns="http://www.w3.org/2000/svg">
<path d="M18.3714 36.7428C8.20717 36.7428 0 28.4726 0 18.3714C0 8.20717 8.20717 0 18.3714 0C28.4726 0 36.7428 8.20717 36.7428 18.3714C36.7428 28.4726 28.4726 36.7428 18.3714 36.7428ZM18.3714 1.5783C9.09101 1.5783 1.5783 9.09101 1.5783 18.3714C1.5783 27.6518 9.09101 35.1645 18.3714 35.1645C27.6518 35.1645 35.1645 27.6518 35.1645 18.3714C35.1645 9.09101 27.5887 1.5783 18.3714 1.5783Z" fill="#1C1D30"/>
<path d="M9.46782 33.6491C9.08903 33.6491 8.64711 33.5228 8.33145 33.3334C6.62688 32.3864 5.8693 28.7879 5.80617 27.8409C5.74303 27.0202 5.55364 26.1995 5.17485 26.0101L5.04858 25.947C1.13439 23.8005 0.755603 21.7171 1.13439 20.2651C1.45006 19.1287 2.08138 18.7499 2.5233 18.4343C2.83896 18.2449 2.96522 18.1186 3.02836 17.8029V17.6767C3.15462 17.0454 3.40715 15.7827 4.54352 15.5302C7.13194 14.8989 7.76326 16.5403 8.01579 17.2979C8.07892 17.4241 8.14205 17.6767 8.20518 17.7398C8.45771 17.9292 8.71024 17.9292 9.15216 17.9292C9.72035 17.9292 10.5411 17.9292 11.2355 18.8131C11.488 19.1287 11.5512 19.5075 11.5512 19.8232C11.6143 20.4545 11.6774 21.0858 13.6345 21.2752C14.9603 21.4015 15.9073 22.159 16.223 23.2954C16.728 25.2525 15.4022 27.9672 14.5184 28.5985C13.8871 29.0404 13.1926 29.1667 12.7507 29.1667C12.6876 30.9975 11.9931 32.4496 10.8567 33.144C10.4148 33.5228 9.97288 33.6491 9.46782 33.6491ZM9.08903 31.9445C9.40469 32.0708 9.78348 32.0708 10.0991 31.8814C10.4779 31.692 11.2355 30.9344 11.2355 28.851C11.2355 27.7778 12.3088 27.7147 12.6244 27.7147C12.9401 27.7147 13.3189 27.6515 13.6345 27.4621C14.0765 27.1465 15.0866 25.1263 14.7078 23.8005C14.5815 23.4217 14.3921 23.0429 13.5083 22.9166C10.6042 22.601 10.0991 21.2752 10.036 20.0126C10.036 19.9494 10.036 19.8232 10.036 19.76C9.84662 19.5075 9.65722 19.5075 9.27843 19.5075C8.77337 19.5075 8.07892 19.5075 7.38447 19.0024C7.00567 18.6868 6.81628 18.2449 6.69001 17.8661C6.43749 17.1085 6.31122 16.7928 5.04858 17.0454C4.85919 17.1085 4.79605 17.6767 4.73292 17.9923V18.1186C4.41726 19.1287 3.78594 19.5075 3.40715 19.8232C3.02836 20.0757 2.83896 20.202 2.7127 20.707C2.46017 21.5909 2.83896 22.9798 5.80617 24.5581L5.93243 24.6212C6.94254 25.1894 7.19507 26.452 7.32134 27.6515C7.51073 29.1036 8.26832 31.5657 9.08903 31.9445Z" fill="#1C1D30"/>
<path d="M30.2426 31.6294C29.8638 31.6294 29.485 31.5031 29.2325 31.3137C28.9168 31.1243 28.4117 30.5561 28.538 29.4829C28.6011 28.8516 28.7274 28.3465 28.8537 27.9677C28.9168 27.7783 28.9799 27.4627 28.9799 27.3995C28.9799 27.3995 28.4117 25.7581 28.9168 24.9374C29.0431 24.748 29.1693 24.6217 29.2956 24.4323C29.4219 24.3061 29.7375 23.9904 29.7375 23.8641C29.6744 23.3591 29.485 22.6646 29.3587 22.5384C28.7905 22.0333 28.7274 21.0232 28.7905 20.5181C28.6643 20.2656 28.1592 19.7606 27.6542 19.8237C27.5279 19.8237 27.2754 19.9499 27.0228 20.0131C26.644 20.2025 26.139 20.3919 25.5708 20.455C24.4344 20.5813 21.9723 19.5712 21.0253 17.2984C20.7728 16.6671 20.7096 14.4575 20.7728 13.9524C20.9622 12.3741 21.846 11.9322 22.3511 11.6797C22.793 11.4903 22.9193 11.4271 22.9193 10.7327C22.9193 10.6064 22.7299 10.2907 22.6036 10.1645C20.899 8.96497 20.9622 7.38667 21.5935 6.31343C22.0354 5.55584 22.793 5.05079 23.74 4.79826C26.3284 4.16694 26.4547 2.96743 26.4547 2.9043H28.033C28.033 3.03056 28.033 5.36645 24.1188 6.31343C23.5506 6.43969 23.1718 6.69222 22.9824 7.07101C22.6036 7.70233 22.793 8.33365 23.5506 8.83871C24.1188 9.2175 24.5607 10.0382 24.5607 10.6695C24.5607 12.311 23.74 12.7529 23.1718 13.0054C22.7299 13.1948 22.5405 13.3211 22.4142 14.0787C22.3511 14.4575 22.4773 16.2883 22.6036 16.6039C23.2349 18.1823 25.0657 18.8136 25.5077 18.7504C25.8233 18.7504 26.139 18.561 26.5178 18.4348C26.8334 18.3085 27.2122 18.1191 27.591 18.1191C28.3486 18.056 29.1693 18.3716 29.8638 19.0661C30.1163 19.3818 30.5582 19.9499 30.4951 20.5181C30.432 20.7707 30.4951 21.0863 30.5582 21.2757C31.2527 21.907 31.4421 23.6116 31.4421 23.6116C31.5052 24.4323 31.0002 25.0636 30.6214 25.4424C30.5582 25.5056 30.4951 25.5687 30.432 25.6318C30.3688 25.8844 30.4951 26.5157 30.6214 26.8945C30.7476 27.3364 30.6214 27.7783 30.4951 28.3465C30.3688 28.7253 30.3057 29.1041 30.2426 29.6092C30.2426 29.8617 30.2426 29.9248 30.3057 29.9248C30.3688 29.9879 30.5582 29.9879 30.8108 29.8617L31.5052 31.2506C31.0002 31.5031 30.6214 31.6294 30.2426 31.6294Z" fill="#1C1D30"/>
<path d="M35.0381 16.604C34.8487 15.5939 33.9017 14.7732 33.1441 14.1419C32.7022 13.7631 32.3865 13.4474 32.1971 13.1317C31.4395 11.3009 30.1769 11.2378 28.9774 11.364C28.788 11.364 28.6617 11.364 28.5355 11.364C26.7046 11.4272 25.442 10.6696 25.0632 9.28068C24.8738 8.5231 25.0632 7.70238 25.6314 7.26046C26.0733 6.88167 26.6415 6.81854 27.1466 7.00793C27.3991 7.1342 27.5885 7.19733 27.841 7.26046C28.2198 7.38672 28.5986 7.51299 29.1037 7.76552C29.4193 7.95491 29.6718 8.08118 30.3663 7.57612C30.4294 7.51299 30.4926 7.38672 30.4926 7.19733C30.4926 6.9448 30.3663 6.69227 30.24 6.56601L31.1239 5.24023C31.6921 5.61903 32.0709 6.37661 32.0709 7.19733C32.0709 7.95491 31.7552 8.58623 31.2502 8.90189C30.1769 9.59635 29.3562 9.65948 28.3461 9.15442C28.0304 8.96502 27.7148 8.90189 27.336 8.77563C27.0834 8.7125 26.894 8.64936 26.6415 8.5231C26.5784 8.58623 26.5784 8.7125 26.6415 8.83876C26.7046 9.09129 26.9572 9.84887 28.5355 9.78574H28.6617C28.7249 9.78574 28.788 9.78574 28.9143 9.78574C29.8612 9.65948 32.4497 9.40695 33.7754 12.5004C33.8386 12.5636 34.0911 12.7529 34.2805 12.9423C35.1012 13.6368 36.3638 14.7732 36.6795 16.3515L35.0381 16.604Z" fill="#1C1D30"/>
<path d="M2.77792 16.7931C1.38902 16.7931 0.631434 15.6567 0.378906 15.0254L1.89408 14.5203C1.89408 14.5834 2.20974 15.2779 2.84106 15.2779C2.90419 15.2148 2.90419 15.0254 2.84106 14.836C2.77792 14.5834 2.58853 14.2678 2.46226 13.9521C2.1466 13.1945 2.02034 12.942 2.02034 12.6263V12.437C2.20974 11.6794 2.336 11.048 2.90419 10.8586C3.40924 10.6693 3.78804 10.9849 4.04056 11.1743C4.29309 11.3637 4.41936 11.4268 4.73502 11.2374C4.86128 11.048 4.92441 10.7324 4.98755 10.4167C5.05068 9.9748 5.17694 9.46974 5.42947 9.09095C5.74513 8.64903 6.88151 7.26012 8.71234 6.8182C9.028 6.75507 10.7326 5.80809 11.1114 5.49243C11.4901 5.17677 11.8058 4.79797 11.8689 4.54544C11.8689 4.48231 11.8689 4.48231 11.8689 4.41918C11.6795 4.41918 11.427 4.41918 11.2376 4.35605C10.5432 4.35605 9.72245 4.35605 9.46992 3.59846C9.15426 2.90401 9.84871 2.20956 10.1012 1.95703L10.8588 2.71462C10.9851 2.71462 11.1745 2.71462 11.3007 2.71462C11.9952 2.71462 12.7528 2.71462 13.1316 3.2828C13.4472 3.72473 13.5735 4.16665 13.5104 4.67171C13.3841 5.61869 12.6265 6.31314 12.1846 6.6288C11.7427 6.94446 9.78558 8.08084 9.15426 8.2071C7.76535 8.52276 6.94464 9.59601 6.75524 9.84854C6.69211 9.91167 6.62898 10.2905 6.56585 10.4799C6.43958 11.048 6.31332 11.7425 5.80826 12.2476L5.682 12.3738C4.86128 12.8157 4.22996 12.7526 3.7249 12.5632C3.78804 12.942 3.85117 13.1314 3.9143 13.2577C4.1037 13.6365 4.22996 13.9521 4.35623 14.2678C4.54562 14.836 4.48249 15.5304 4.16683 16.0355C3.9143 16.4143 3.53551 16.6668 3.09358 16.7299C3.03045 16.7931 2.90419 16.7931 2.77792 16.7931Z" fill="#1C1D30"/>
<path d="M42.485 26.7677C42.485 32.8915 32.6995 37.8158 32.6995 37.8158C32.6995 37.8158 22.9141 32.8915 22.9141 26.7677C22.9141 20.6439 28.5328 19.6337 32.6995 23.7373C36.8031 19.6337 42.485 20.6439 42.485 26.7677Z" fill="#F4B223"/>
<path d="M32.7038 38.6997L32.325 38.5103C31.8831 38.3209 22.0977 33.2704 22.0977 26.7678C22.0977 23.8637 23.2972 21.7172 25.3805 20.8965C27.5901 20.0126 30.368 20.7071 32.7038 22.7273C34.9766 20.7071 37.8175 20.0126 40.0272 20.8965C42.1105 21.7803 43.31 23.9268 43.31 26.7678C43.2469 33.2704 33.4614 38.3209 33.0195 38.5103L32.7038 38.6997ZM27.4007 22.0329C26.8957 22.0329 26.3906 22.096 25.9487 22.2854C24.4335 22.9167 23.6128 24.495 23.6128 26.7046C23.6128 31.6289 30.873 35.9219 32.6407 36.8689C34.4084 35.985 41.6686 31.6921 41.6686 26.7678C41.6686 24.5581 40.8479 22.9798 39.3327 22.3485C37.565 21.5909 35.166 22.4117 33.2089 24.3056L32.6407 24.8738L32.0725 24.3056C30.6836 22.8536 28.9159 22.0329 27.4007 22.0329Z" fill="#1C1D30"/>
</svg>
